<svg xmlns="http://www.w3.org/2000/svg" width="230" height="56" viewBox="0 0 230 56" role="img" aria-labelledby="title desc">
  <title id="title">SQL Mastery</title>
  <desc id="desc">A light-blue database stack beside the SQL Mastery wordmark.</desc>
  <rect x="2" y="2" width="52" height="52" rx="15" fill="#eaf6ff"/>
  <path d="M13 17c0-3.3 6.7-6 15-6s15 2.7 15 6-6.7 6-15 6-15-2.7-15-6Z" fill="#fff" stroke="#3182ce" stroke-width="2.2"/>
  <path d="M13 17v8c0 3.3 6.7 6 15 6s15-2.7 15-6v-8M13 25v8c0 3.3 6.7 6 15 6s15-2.7 15-6v-8" fill="#fff" stroke="#3182ce" stroke-width="2.2"/>
  <path d="M18 21h3m14 0h3M18 29h3m14 0h3M18 37h3m14 0h3" stroke="#80bce8" stroke-width="2" stroke-linecap="round"/>
  <circle cx="47" cy="43" r="3" fill="#f2b9d0"/>
  <text x="67" y="27" fill="#1e293b" font-family="DM Sans, Arial, sans-serif" font-size="22" font-weight="700">SQL</text>
  <text x="67" y="45" fill="#3182ce" font-family="DM Sans, Arial, sans-serif" font-size="13" font-weight="700" letter-spacing="2.2">MASTERY</text>
</svg>
